<?xml version="1.0" encoding="UTF-8" standalone="no"?>
<svg
   version="1.0"
   width="502.000000pt"
   height="320.000000pt"
   viewBox="0 0 502.000000 320.000000"
   preserveAspectRatio="xMidYMid meet"
   id="svg8"
   sodipodi:docname="monixlogo.svg"
   inkscape:version="1.3.1 (91b66b0783, 2023-11-16)"
   xmlns:inkscape="http://www.inkscape.org/namespaces/inkscape"
   xmlns:sodipodi="http://sodipodi.sourceforge.net/DTD/sodipodi-0.dtd"
   xmlns="http://www.w3.org/2000/svg"
   xmlns:svg="http://www.w3.org/2000/svg">
  <defs
     id="defs8" />
  <sodipodi:namedview
     id="namedview8"
     pagecolor="#ffffff"
     bordercolor="#000000"
     borderopacity="0.25"
     inkscape:showpageshadow="2"
     inkscape:pageopacity="0.0"
     inkscape:pagecheckerboard="0"
     inkscape:deskcolor="#d1d1d1"
     inkscape:document-units="pt"
     inkscape:zoom="0.5"
     inkscape:cx="320"
     inkscape:cy="283"
     inkscape:window-width="1366"
     inkscape:window-height="705"
     inkscape:window-x="-8"
     inkscape:window-y="-8"
     inkscape:window-maximized="1"
     inkscape:current-layer="svg8" />
  <g
     transform="translate(0.000000,320.000000) scale(0.100000,-0.100000)"
     fill="#000000"
     stroke="none"
     id="g8">
    <path
       d="M1250 1900 l0 -690 263 2 262 3 2 214 c1 117 3 214 5 216 2 2 50 -96 108 -216 l105 -219 238 0 238 0 85 178 c48 97 96 197 108 222 l21 45 3 -222 2 -223 74 0 73 0 36 78 c230 500 347 759 347 768 0 8 -40 3 -122 -12 -68 -13 -163 -31 -213 -39 -49 -9 -98 -18 -107 -21 -10 -3 -18 -2 -18 3 0 4 85 141 189 303 l190 295 -241 3 c-133 1 -245 -1 -249 -5 -8 -8 -54 -91 -284 -511 -70 -128 -131 -230 -136 -225 -8 9 -345 616 -385 696 l-24 47 -285 0 -285 0 0 -690z"
       id="path1" />
    <path
       d="M3151 2483 c-38 -60 -91 -142 -117 -183 -26 -41 -69 -108 -96 -149 -26 -41 -47 -76 -45 -77 1 -1 89 14 194 34 106 19 195 33 198 30 3 -2 -29 -79 -71 -169 -41 -90 -93 -202 -114 -249 -21 -47 -54 -119 -73 -160 -95 -205 -117 -253 -114 -257 6 -5 817 1093 817 1106 0 4 -80 -7 -177 -25 -98 -19 -184 -34 -192 -34 -17 0 -11 16 42 98 24 37 54 84 66 105 l23 37 -136 0 -136 0 -69 -107z"
       id="path2" />
    <path
       d="M3056 1430 c-86 -116 -156 -212 -156 -215 0 -3 72 -5 160 -5 l160 0 0 215 c0 118 -2 215 -4 215 -2 0 -74 -95 -160 -210z"
       id="path3" />
    <path
       d="M472 588 l3 -333 127 -3 127 -3 3 108 3 107 52 -107 53 -108 112 3 113 3 52 105 52 105 3 -105 3 -105 128 -3 127 -3 0 336 0 335 -138 0 -139 0 -98 -180 c-54 -99 -102 -177 -106 -173 -4 5 -50 85 -102 178 l-94 170 -142 3 -142 3 3 -333z"
       id="path4" />
    <path
       d="M1618 908 c-48 -13 -85 -57 -93 -111 -4 -23 -5 -133 -3 -244 3 -228 7 -239 84 -278 36 -19 59 -20 339 -20 450 0 434 -12 435 335 0 237 -5 262 -63 304 -27 20 -42 21 -345 23 -190 1 -332 -3 -354 -9z m500 -316 l3 -152 -26 -10 c-34 -13 -256 -13 -289 0 l-26 10 0 149 c0 110 3 151 13 155 6 2 82 4 167 3 l155 -2 3 -153z"
       id="path5" />
    <path
       d="M2510 585 l0 -335 125 0 125 0 0 145 c0 80 3 145 8 144 4 0 65 -65 135 -145 l128 -144 135 0 134 0 0 335 0 335 -130 0 -130 0 0 -167 0 -166 -22 21 c-13 12 -77 86 -143 166 l-120 145 -122 0 -123 1 0 -335z"
       id="path6" />
    <path
       d="M3696 909 c4 -7 59 -80 122 -163 63 -83 115 -156 115 -162 0 -6 -54 -81 -121 -167 -67 -86 -122 -158 -122 -161 0 -3 72 -6 159 -6 l159 0 29 34 c17 18 37 44 47 57 l17 24 22 -26 c12 -14 33 -40 47 -57 l25 -33 162 3 162 3 -120 155 c-66 85 -123 160 -125 167 -3 6 49 83 115 171 67 88 121 163 121 166 0 3 -69 6 -153 6 l-154 0 -46 -60 c-26 -33 -51 -60 -55 -60 -4 0 -28 27 -53 60 l-44 59 -158 1 c-117 0 -156 -3 -151 -11z"
       id="path7" />
    <path
       d="M3392 573 l3 -318 125 0 125 0 3 318 2 318 -38 -40 c-36 -38 -43 -41 -92 -41 -49 0 -56 3 -92 41 l-38 40 2 -318z"
       id="path8" />
  </g>
  <path
     style="fill:#ff0000;fill-opacity:0.59736;stroke-width:2.625;stroke-linejoin:bevel;paint-order:stroke fill markers"
     d="M 350.44602,81.732809 349.17406,61.051686 Z"
     id="path9"
     sodipodi:nodetypes="ccc" />
  <path
     style="fill:#ff0000;fill-opacity:1;stroke-width:2.625;stroke-linejoin:bevel;paint-order:stroke fill markers"
     d="m 322.00195,60.999023 h 27.20215 l -2.15039,3.451173 -0.48926,0.823241 -0.26953,0.451172 -1.09863,1.790039 -0.55631,0.89379 -0.85764,1.354827 -0.78307,1.230532 -4.67093,7.459068 c 0,0 -0.8782,1.25685 -1.27043,1.908713 -0.31489,0.557962 -0.62977,1.115902 -0.94465,1.673857 -0.14713,0.299393 -0.29426,0.59877 -0.44139,0.898155 -0.11718,0.335948 -0.23437,0.67188 -0.35156,1.007813 -0.0234,0.187507 -0.0469,0.375 -0.0703,0.5625 0.0781,0.121102 0.15624,0.24219 0.23437,0.363285 0.32423,0.03517 0.64844,0.07027 0.97265,0.105465 2.01177,-0.328125 4.02345,-0.65625 6.03516,-0.984375 1.40628,-0.257813 2.8125,-0.515625 4.21875,-0.773438 3.83212,-0.714855 13.52344,-2.507812 17.35546,-3.222652 3.55867,-0.570323 1.39845,-0.203123 4.95704,-0.773438 1.21877,-0.125002 2.80743,-0.343947 3.86046,-0.183068 0.10945,0.02155 0.14009,0.02999 0.11436,0.113748 -0.0257,0.08376 -0.0668,0.207682 -0.10957,0.331291 -0.0428,0.123608 -0.0872,0.246903 -0.1197,0.329405 -0.0325,0.0825 -0.053,0.124214 -0.0479,0.08466 0.007,0.0024 0.008,0.006 0.007,0.01008 -0.001,0.0041 -0.006,0.0087 -0.01,0.01336 -0.004,0.0046 -0.009,0.0093 -0.01,0.01337 -0.001,0.0041 0,0.0076 0.007,0.0101 0.0117,0.01073 -0.3704,0.339427 -0.3586,0.350227 -1.46498,2.537737 -3.73303,5.769296 -6.6667,9.770887 -2.93367,4.001591 -6.53295,8.773215 -10.66037,14.39108 -8.18188,11.13642 -25.2088,34.68221 -34.64771,47.21685 -18.87781,25.06928 -28.73344,37.85602 -28.73344,37.85602 l -0.69606,0.96123 0.43089,-1.59099 5.13758,-11.70042 29.10462,-63.57144 1.23914,-2.83955 0.7448,-1.89491 0.5625,-1.5 0.28125,-1.17187 -1.875,0.0937 -3.66997,0.53504 -31.26988,5.52849 -2.54209,0.3191 1.72358,-2.9831 6.25722,-10.26135 z"
     id="path10"
     sodipodi:nodetypes="ccccccccccccccccccccccssscsssccssscccccccccccccccc" />
</svg>
